<svg width="26" height="26" viewBox="0 0 26 26" fill="none" xmlns="http://www.w3.org/2000/svg">
<path d="M21.1314 8.62333C20.3585 11.6377 18.7897 14.389 16.5893 16.5894C14.3889 18.7898 11.6376 20.3585 8.62325 21.1315C6.30384 21.7219 4.33325 19.7275 4.33325 17.3333V16.25C4.33325 15.652 4.81967 15.1721 5.4155 15.1125C6.40176 15.0145 7.36991 14.7815 8.29284 14.4202L9.93842 16.0669C12.6195 14.7816 14.7816 12.6196 16.0668 9.93849L14.4202 8.29183C14.7818 7.36895 15.0151 6.40081 15.1135 5.4145C15.172 4.81866 15.6519 4.33333 16.2499 4.33333H17.3333C19.7253 4.33333 21.7207 6.30391 21.1303 8.62333" stroke="white" stroke-width="2.16667" stroke-linecap="round" stroke-linejoin="round"/>
</svg>
