<svg width="20" height="20" viewBox="0 0 20 20" fill="none" xmlns="http://www.w3.org/2000/svg">
<path d="M13.0658 6.9385L11.4202 5.29183C11.7818 4.36896 12.0151 3.40081 12.1135 2.4145C12.172 1.81867 12.6519 1.33333 13.2499 1.33333H14.3333C16.7274 1.33333 18.7218 3.30392 18.1314 5.62333C17.7262 7.20891 17.0985 8.72912 16.267 10.1387M10.5253 10.5254C9.48264 11.5701 8.26966 12.4295 6.93842 13.0669L5.29175 11.4202C4.36888 11.7819 3.40073 12.0152 2.41442 12.1136C1.81859 12.1721 1.33325 12.652 1.33325 13.25V14.3333C1.33325 16.7275 3.30384 18.7219 5.62325 18.1315C8.6384 17.3604 11.3903 15.7917 13.5901 13.5902" stroke="white" stroke-width="2.16667" stroke-linecap="round" stroke-linejoin="round"/>
<path d="M1.33325 1.33333L18.6666 18.6667" stroke="white" stroke-width="2.16667" stroke-linecap="round"/>
</svg>
