<svg width="18" height="18" viewBox="0 0 18 18" fill="none" xmlns="http://www.w3.org/2000/svg">
<path d="M9.06885 4.83333C13.211 4.83333 16.5688 4.08714 16.5688 3.16667C16.5688 2.24619 13.211 1.5 9.06885 1.5C4.92671 1.5 1.56885 2.24619 1.56885 3.16667C1.56885 4.08714 4.92671 4.83333 9.06885 4.83333Z" stroke="white" stroke-width="1.41667" stroke-linecap="round" stroke-linejoin="round"/>
<path d="M1.56885 3.16666C1.56885 5.02499 4.79468 8.72832 6.44885 10.5042C7.05564 11.1474 7.39628 11.9966 7.40218 12.8808V14.8333C7.40218 15.2754 7.57778 15.6993 7.89034 16.0118C8.2029 16.3244 8.62682 16.5 9.06885 16.5C9.51087 16.5 9.9348 16.3244 10.2474 16.0118C10.5599 15.6993 10.7355 15.2754 10.7355 14.8333V12.8808C10.7355 11.9967 11.0863 11.1517 11.6888 10.5042C13.3438 8.72832 16.5688 5.02582 16.5688 3.16666" stroke="white" stroke-width="1.41667" stroke-linecap="round" stroke-linejoin="round"/>
</svg>
