<svg width="22" height="22" viewBox="0 0 22 22" fill="none" xmlns="http://www.w3.org/2000/svg">
<path d="M11 20.75C13.1265 20.7495 15.1946 20.0538 16.889 18.7689C18.5834 17.4841 19.8113 15.6804 20.3856 13.6329C20.9598 11.5854 20.8489 9.40632 20.0698 7.42768C19.2907 5.44905 17.886 3.77939 16.0699 2.67315C14.2538 1.56691 12.1258 1.08475 10.0102 1.30014C7.89466 1.51554 5.90751 2.41668 4.35161 3.86624C2.79571 5.3158 1.75639 7.23429 1.39201 9.32935C1.02764 11.4244 1.3582 13.5812 2.33332 15.4709L1.24999 20.75L6.52907 19.6667C7.86807 20.3589 9.38907 20.75 11 20.75Z" stroke="white" stroke-width="2.16667" stroke-linecap="round" stroke-linejoin="round"/>
<path d="M6.125 11H6.13583V11.0108H6.125V11ZM11 11H11.0108V11.0108H11V11ZM15.875 11H15.8858V11.0108H15.875V11Z" stroke="white" stroke-width="3.25" stroke-linejoin="round"/>
</svg>
